<svg width="32" height="28" viewBox="0 0 32 28" fill="none" xmlns="http://www.w3.org/2000/svg">
<path d="M27.7862 4.14715C27.1052 3.46582 26.2966 2.92534 25.4066 2.55659C24.5167 2.18784 23.5628 1.99805 22.5995 1.99805C21.6362 1.99805 20.6823 2.18784 19.7924 2.55659C18.9024 2.92534 18.0938 3.46582 17.4128 4.14715L15.9995 5.56048L14.5862 4.14715C13.2106 2.77156 11.3449 1.99876 9.39951 1.99876C7.45413 1.99876 5.58843 2.77156 4.21284 4.14715C2.83725 5.52274 2.06445 7.38844 2.06445 9.33381C2.06445 11.2792 2.83725 13.1449 4.21284 14.5205L15.9995 26.3071L27.7862 14.5205C28.4675 13.8395 29.008 13.0309 29.3767 12.141C29.7455 11.251 29.9353 10.2971 29.9353 9.33381C29.9353 8.3705 29.7455 7.41662 29.3767 6.52667C29.008 5.63673 28.4675 4.82816 27.7862 4.14715Z" stroke="white" stroke-width="3" stroke-linecap="round" stroke-linejoin="round"/>
</svg>
